Patient4_TMGait_0pt6_02_left_02_GRF.mot
version=1
nRows=65
nColumns=19
inDegrees=no
endheader
time	F1x	F1y	F1z	M1x	M1y	M1z	F2x	F2y	F2z	M2x	M2y	M2z	EC1x	EC1y	EC1z	EC2x	EC2y	EC2z
2.27	15.1484	-11.4592	-6.0204	4.179	7.3538	-17.3248	-31.0452	820.3384	-83.1882	287.2622	95.1964	830.9624	-0.0592	0.0182	-0.0073	-0.0462	0.0165	0.9585
2.2826	10.0061	-6.6096	-4.1702	2.4443	4.9375	-10.3375	-31.3464	798.3835	-82.0586	279.8775	93.4907	802.5448	-0.0592	0.0182	-0.0073	-0.0462	0.0165	0.9585
2.2951	5.6948	-2.5065	-2.5435	0.95826	2.8597	-4.4842	-30.7659	776.9128	-80.6222	272.5824	91.1606	774.5488	-0.0592	0.0182	-0.0073	-0.0462	0.0165	0.9585
2.3077	2.4283	0.63128	-1.2576	-0.18985	1.2421	-0.054638	-29.2903	757.8268	-78.9489	266.0683	88.3097	749.0993	-0.0592	0.0182	-0.0073	-0.0462	0.0165	0.9585
2.3203	0.18309	2.8238	-0.3302	-1.0025	0.089508	2.9898	-27.0816	742.5794	-77.1109	260.8918	85.0856	727.687	-0.0592	0.0182	-0.0073	-0.0462	0.0165	0.9585
2.3329	-1.2019	4.1942	0.28656	-1.5243	-0.66617	4.8455	-24.3295	732.1442	-75.1981	257.4423	81.6527	711.1996	-0.0592	0.0182	-0.0073	-0.0462	0.0165	0.9585
2.3454	-1.9526	4.9259	0.6557	-1.8178	-1.1159	5.7949	-21.2182	726.9162	-73.2887	255.8985	78.1488	699.8898	-0.0592	0.0182	-0.0073	-0.0462	0.0165	0.9585
2.358	-2.2717	5.1743	0.8513	-1.9365	-1.3495	6.0716	-17.8972	726.6473	-71.4715	256.1987	74.6978	693.3677	-0.0592	0.0182	-0.0073	-0.0462	0.0165	0.9585
2.3706	-2.3608	5.0613	0.92889	-1.9182	-1.4452	5.8856	-14.4328	730.5234	-69.8076	258.0652	71.3668	690.7112	-0.0592	0.0182	-0.0073	-0.0462	0.0165	0.9585
2.3831	-2.3365	4.6318	0.94455	-1.7771	-1.4717	5.317	-10.8797	737.3012	-68.3488	261.0538	68.2086	690.6484	-0.0592	0.0182	-0.0073	-0.0462	0.0165	0.9585
2.3957	-2.3179	3.8948	0.93161	-1.5082	-1.4854	4.4263	-7.2568	745.5055	-67.0947	264.6279	65.2201	691.7514	-0.0592	0.0182	-0.0073	-0.0462	0.0165	0.9585
2.4083	-2.3337	2.7812	0.91031	-1.0824	-1.5048	3.1492	-3.5926	753.6452	-66.0202	268.2339	62.3794	692.6595	-0.0592	0.0182	-0.0073	-0.0462	0.0165	0.9585
2.4209	-2.3899	1.2181	0.88555	-0.46894	-1.5285	1.4389	0.089169	760.3205	-65.0626	271.3453	59.6313	692.1501	-0.0592	0.0182	-0.0073	-0.0462	0.0165	0.9585
2.4334	-2.4164	-0.86871	0.84789	0.35614	-1.5181	-0.79389	3.7468	764.3602	-64.1818	273.5122	56.9509	689.2653	-0.0592	0.0182	-0.0073	-0.0462	0.0165	0.9585
2.446	-2.3092	-3.4686	0.77837	1.3839	-1.4129	-3.5534	7.3343	764.9798	-63.3356	274.4206	54.3168	683.4224	-0.0592	0.0182	-0.0073	-0.0462	0.0165	0.9585
2.4586	-1.9108	-6.4111	0.63624	2.5409	-1.11	-6.6776	10.8213	761.814	-62.504	273.9063	51.7268	674.4322	-0.0592	0.0182	-0.0073	-0.0462	0.0165	0.9585
2.4711	-1.0157	-9.2833	0.38289	3.6574	-0.48954	-9.7448	14.1668	754.8403	-61.6703	271.9314	49.182	662.4245	-0.0592	0.0182	-0.0073	-0.0462	0.0165	0.9585
2.4837	0.59054	-11.2931	-0.044873	4.4198	0.59767	-11.9132	17.3487	744.3377	-60.8536	268.5681	46.7107	647.7696	-0.0592	0.0182	-0.0073	-0.0462	0.0165	0.9585
2.4963	3.1472	-11.1958	-0.68132	4.337	2.2798	-11.8786	20.3275	730.8608	-60.0999	263.9899	44.3663	631.0612	-0.0592	0.0182	-0.0073	-0.0462	0.0165	0.9585
2.5089	6.7913	-7.1797	-1.5719	2.7031	4.6581	-7.7163	23.0767	715.1438	-59.4936	258.4407	42.2315	613.0148	-0.0592	0.0182	-0.0073	-0.0462	0.0165	0.9585
2.5214	11.5364	3.058	-2.701	-1.3786	7.7178	3.0035	25.5715	697.935	-59.1035	252.1742	40.3786	594.3433	-0.0592	0.0182	-0.0073	-0.0462	0.0165	0.9585
2.534	17.0722	22.2071	-4.0119	-8.9463	11.2737	23.1527	27.8047	679.6996	-58.9462	245.3551	38.8389	575.4769	-0.0592	0.0182	-0.0073	-0.0462	0.0165	0.9585
2.5466	22.6437	52.9018	-5.3095	-21.0073	14.8183	55.5403	29.751	660.4178	-58.9383	237.9905	37.5744	556.4099	-0.0592	0.0182	-0.0073	-0.0462	0.0165	0.9585
2.5591	26.802	97.0366	-6.2708	-38.2659	17.4299	102.2237	31.3413	639.4703	-58.8887	229.8892	36.4827	536.6257	-0.0592	0.0182	-0.0073	-0.0462	0.0165	0.9585
2.5717	27.3821	154.7584	-6.3427	-60.7363	17.6743	163.4383	32.4268	615.6937	-58.4975	220.685	35.3975	515.1511	-0.0592	0.0182	-0.0073	-0.0462	0.0165	0.9585
2.5843	22.4502	224.0933	-4.8642	-87.6016	14.1122	237.2113	32.8217	587.7579	-57.419	209.9673	34.1201	490.8642	-0.0592	0.0182	-0.0073	-0.0462	0.0165	0.9585
2.5969	12.2816	301.5815	-1.2898	-117.45	6.2696	319.8971	32.4169	554.6473	-55.3292	197.4458	32.4378	462.8507	-0.0592	0.0182	-0.0073	-0.0462	0.0165	0.9585
2.6094	-1.0691	381.3015	4.7502	-147.9299	-5.4463	404.9742	31.197	515.9133	-52.0445	183.0295	30.205	430.6275	-0.0592	0.0182	-0.0073	-0.0462	0.0165	0.9585
2.622	-15.1869	455.3233	13.3852	-176.0096	-20.1329	483.6063	29.2695	471.6956	-47.5703	166.832	27.3757	394.1332	-0.0592	0.0182	-0.0073	-0.0462	0.0165	0.9585
2.6346	-28.0726	518.8407	23.3178	-199.9114	-35.5945	550.3354	26.789	422.9037	-42.0822	149.207	24.0085	353.9446	-0.0592	0.0182	-0.0073	-0.0462	0.0165	0.9585
2.6471	-38.6838	571.1008	33.167	-219.4482	-49.9348	604.2463	23.9395	370.9851	-36.0212	130.6584	20.3556	311.1034	-0.0592	0.0182	-0.0073	-0.0462	0.0165	0.9585
2.6597	-46.5339	613.544	41.7066	-235.2813	-61.705	646.8411	20.819	317.6259	-29.9389	111.74	16.7818	266.9259	-0.0592	0.0182	-0.0073	-0.0462	0.0165	0.9585
2.6723	-51.4394	647.9182	48.2106	-248.1619	-70.1036	680.0226	17.4595	264.5803	-24.2392	93.0212	13.5637	222.8438	-0.0592	0.0182	-0.0073	-0.0462	0.0165	0.9585
2.6849	-53.3752	675.4966	52.3942	-258.6272	-74.8756	705.1868	13.8888	213.6556	-19.1463	75.094	10.852	180.3846	-0.0592	0.0182	-0.0073	-0.0462	0.0165	0.9585
2.6974	-52.5613	697.3226	54.4583	-267.0687	-76.3546	723.5378	10.2252	166.6476	-14.7217	58.5601	8.6485	141.0766	-0.0592	0.0182	-0.0073	-0.0462	0.0165	0.9585
2.71	-49.466	714.1987	54.8913	-273.7474	-75.2589	736.1128	6.6809	125.1317	-10.9786	43.9567	6.8992	106.2727	-0.0592	0.0182	-0.0073	-0.0462	0.0165	0.9585
2.7226	-44.7799	726.7584	54.387	-278.8356	-72.5781	743.7961	3.5247	90.1203	-7.8924	31.6361	5.503	76.8439	-0.0592	0.0182	-0.0073	-0.0462	0.0165	0.9585
2.7351	-39.2857	735.6949	53.5561	-282.5235	-69.2363	747.5212	0.97377	61.8784	-5.4284	21.6948	4.3711	53.0357	-0.0592	0.0182	-0.0073	-0.0462	0.0165	0.9585
2.7477	-33.6248	741.9168	52.8119	-285.1035	-65.8985	748.3801	-0.87931	40.0486	-3.5071	14.0127	3.4167	34.5826	-0.0592	0.0182	-0.0073	-0.0462	0.0165	0.9585
2.7603	-28.283	746.6012	52.2748	-286.9865	-62.8704	747.7077	-2.0326	23.8739	-2.0554	8.3288	2.5882	20.8719	-0.0592	0.0182	-0.0073	-0.0462	0.0165	0.9585
2.7729	-23.5497	750.8224	51.9082	-288.5599	-60.2282	746.6755	-2.5453	12.4554	-0.9955	4.3276	1.8505	11.1619	-0.0592	0.0182	-0.0073	-0.0462	0.0165	0.9585
2.7854	-19.6208	755.2368	51.6377	-290.0489	-57.972	746.044	-2.5256	4.9078	-0.28319	1.6945	1.2167	4.7144	-0.0592	0.0182	-0.0073	-0.0462	0.0165	0.9585
2.798	-16.5456	759.9714	51.4825	-291.4689	-56.1426	746.0048	-2.1693	0.42166	0.14273	0.13955	0.70889	0.85197	-0.0592	0.0182	-0.0073	-0.0462	0.0165	0.9585
2.8106	-14.2998	764.6898	51.5795	-292.652	-54.8567	746.2815	-1.6817	-1.7911	0.34542	-0.61854	0.3457	-1.0797	-0.0592	0.0182	-0.0073	-0.0462	0.0165	0.9585
2.8231	-12.7361	768.7946	52.0914	-293.3404	-54.213	746.3128	-1.185	-2.4752	0.40001	-0.8424	0.10674	-1.7152	-0.0592	0.0182	-0.0073	-0.0462	0.0165	0.9585
2.8357	-11.6564	771.738	53.1122	-293.3128	-54.2269	745.5577	-0.75878	-2.2427	0.35767	-0.74718	-0.023285	-1.5723	-0.0592	0.0182	-0.0073	-0.0462	0.0165	0.9585
2.8483	-10.8176	773.1807	54.5719	-292.4581	-54.7468	743.63	-0.42808	-1.557	0.26601	-0.4941	-0.072501	-1.0467	-0.0592	0.0182	-0.0073	-0.0462	0.0165	0.9585
2.8609	-9.9613	773.0502	56.3018	-290.7903	-55.5241	740.3725	-0.20527	-0.72486	0.15726	-0.19161	-0.063433	-0.38871	-0.0592	0.0182	-0.0073	-0.0462	0.0165	0.9585
2.8734	-8.8683	771.496	58.1157	-288.4178	-56.3098	735.8436	-0.069269	0.067309	0.055452	0.094918	-0.023909	0.24733	-0.0592	0.0182	-0.0073	-0.0462	0.0165	0.9585
2.886	-7.431	768.748	59.9183	-285.4855	-56.9719	730.1908	-0.0010503	0.72576	-0.026642	0.33254	0.028098	0.78706	-0.0592	0.0182	-0.0073	-0.0462	0.0165	0.9585
2.8986	-5.6728	765.1344	61.6303	-282.1738	-57.4405	723.6867	0.025558	1.2299	-0.084759	0.51324	0.076752	1.2153	-0.0592	0.0182	-0.0073	-0.0462	0.0165	0.9585
2.9111	-3.6758	761.0507	63.1756	-278.6919	-57.6752	716.6799	0.032464	1.5858	-0.12133	0.63934	0.11438	1.5357	-0.0592	0.0182	-0.0073	-0.0462	0.0165	0.9585
2.9237	-1.5494	756.9409	64.4436	-275.2674	-57.6178	709.5742	0.018831	1.8325	-0.13585	0.72463	0.1407	1.7877	-0.0592	0.0182	-0.0073	-0.0462	0.0165	0.9585
2.9363	0.6189	753.2287	65.3509	-272.1129	-57.2261	702.73	0.002201	2.0019	-0.13592	0.7821	0.15698	1.9908	-0.0592	0.0182	-0.0073	-0.0462	0.0165	0.9585
2.9489	2.7692	750.2679	65.8403	-269.3971	-56.4765	696.4452	-0.025298	2.1262	-0.12436	0.82426	0.16472	2.1659	-0.0592	0.0182	-0.0073	-0.0462	0.0165	0.9585
2.9614	4.8571	748.2581	65.9199	-267.2166	-55.395	690.8745	-0.055501	2.2206	-0.10917	0.85828	0.16632	2.3104	-0.0592	0.0182	-0.0073	-0.0462	0.0165	0.9585
2.974	6.8544	747.2455	65.6204	-265.5997	-54.0194	686.0468	-0.09533	2.3054	-0.093902	0.89068	0.16335	2.4513	-0.0592	0.0182	-0.0073	-0.0462	0.0165	0.9585
2.9866	8.758	747.1148	65.0248	-264.5024	-52.4218	681.8544	-0.13616	2.3653	-0.088335	0.91652	0.16146	2.5655	-0.0592	0.0182	-0.0073	-0.0462	0.0165	0.9585
2.9991	10.6083	747.6058	64.21	-263.8168	-50.6555	678.0657	-0.18081	2.3945	-0.089826	0.93084	0.16218	2.6447	-0.0592	0.0182	-0.0073	-0.0462	0.0165	0.9585
3.0117	12.4434	748.3486	63.2657	-263.3868	-48.7859	674.3551	-0.22176	2.3612	-0.10283	0.92049	0.17487	2.6437	-0.0592	0.0182	-0.0073	-0.0462	0.0165	0.9585
3.0243	14.332	748.9793	62.2297	-263.0536	-46.8247	670.4055	-0.26641	2.2071	-0.12736	0.86161	0.20855	2.4937	-0.0592	0.0182	-0.0073	-0.0462	0.0165	0.9585
3.0369	16.337	749.1953	61.1676	-262.6802	-44.8073	665.9734	-0.315	1.8551	-0.1644	0.72247	0.26793	2.1094	-0.0592	0.0182	-0.0073	-0.0462	0.0165	0.9585
3.0494	18.5237	748.7857	60.1334	-262.1671	-42.7553	660.8952	-0.36508	1.2059	-0.21574	0.46443	0.35164	1.3852	-0.0592	0.0182	-0.0073	-0.0462	0.0165	0.9585
3.062	20.9343	747.6521	59.2001	-261.4565	-40.7104	655.1181	-0.40737	0.16477	-0.28307	0.049923	0.45354	0.22317	-0.0592	0.0182	-0.0073	-0.0462	0.0165	0.9585
3.0746	23.6083	745.8383	58.3934	-260.5416	-38.6767	648.7175	-0.40985	-1.3482	-0.36303	-0.54983	0.55421	-1.4604	-0.0592	0.0182	-0.0073	-0.0462	0.0165	0.9585
